<?xml version="1.0" encoding="iso-8859-1"?>
<!-- Generator: Adobe Illustrator 18.0.0, SVG Export Plug-In . SVG Version: 6.00 Build 0)  -->
<!DOCTYPE svg PUBLIC "-//W3C//DTD SVG 1.1//EN" "http://www.w3.org/Graphics/SVG/1.1/DTD/svg11.dtd">
<svg version="1.1" id="Capa_1" xmlns="http://www.w3.org/2000/svg" xmlns:xlink="http://www.w3.org/1999/xlink" x="0px" y="0px"
	 viewBox="0 0 47.52 47.52" style="enable-background:new 0 0 47.52 47.52;" xml:space="preserve">
<path d="M39.179,16.245l6.317,0.059l0.08-0.013c0.455-0.07,0.863-0.287,1.186-0.632c0.48-0.519,0.679-1.255,0.531-1.971
	c-0.151-0.735-0.641-1.353-1.309-1.648c-0.451-0.201-0.619-0.661-0.844-1.394c-0.242-0.79-0.647-2.146-2.22-2.008
	c-0.562,0.06-1.049-0.116-1.365-0.464c-0.288-0.317-0.422-0.77-0.374-1.275c0.1-1.072-0.216-2.069-0.889-2.809
	c-0.662-0.727-1.601-1.127-2.644-1.127c-0.076,0-0.153,0.002-0.246,0.007c-0.013-0.064-0.026-0.133-0.037-0.193
	c-0.143-0.755-0.438-2.313-2.611-2.607C34.549,0.104,34.151,0,33.695,0c-1.281,0-2.159,0.828-2.297,2.257L31.375,8.52h-10.21
	c-1.59,0-3.132,0.193-4.622,0.53c-0.534-2.012-1.418-3.916-2.68-5.658l-0.496-0.685l-0.758,0.376
	C12.419,3.176,7.94,5.435,6.705,9.32c-0.5,1.571-0.405,3.168,0.279,4.76c-4.171,3.838-6.805,9.323-6.805,15.424V47.52h17.876
	c5.643,0,10.947-2.197,14.937-6.188c0.485-0.485,0.941-0.99,1.372-1.512c0.464,0.037,0.928,0.063,1.389,0.063
	c3.615,0,6.97-1.103,9.969-3.275l0.685-0.496l-0.376-0.758c-0.115-0.233-2.686-5.299-7.065-6.105
	c0.126-0.94,0.214-1.889,0.213-2.853V16.245z M8.605,12.707c-0.289-0.939-0.286-1.855,0.005-2.773
	c0.708-2.237,2.954-3.888,4.141-4.629c0.859,1.338,1.491,2.768,1.889,4.267c-0.904,0.297-1.774,0.663-2.62,1.075
	c-0.205,0.099-0.414,0.191-0.615,0.297c-0.28,0.148-0.549,0.311-0.822,0.47c-0.279,0.163-0.556,0.327-0.827,0.503
	c-0.246,0.16-0.485,0.327-0.723,0.497C8.891,12.514,8.743,12.603,8.605,12.707z M9.072,36.505c-0.566,0.566-1.32,0.879-2.121,0.879
	s-1.555-0.313-2.121-0.879s-0.879-1.32-0.879-2.121c0-0.802,0.313-1.556,0.879-2.122c1.133-1.131,3.109-1.132,4.242,0.001
	c0.566,0.565,0.879,1.319,0.879,2.121C9.951,35.185,9.639,35.938,9.072,36.505z M20.951,40.898c0-7.72-6.28-14-14-14v-2
	c8.822,0,16,7.178,16,16H20.951z M24.206,37.644c0-7.72-6.28-14-14-14v-2c8.822,0,16,7.178,16,16H24.206z M27.315,34.534
	c0-7.72-6.28-14-14-14v-2c8.822,0,16,7.178,16,16H27.315z M16.57,17.279v-2c8.822,0,16,7.178,16,16h-2
	C30.57,23.56,24.29,17.279,16.57,17.279z M38.614,31.207c2.521,0.471,4.392,3.003,5.193,4.287c-2.45,1.581-5.147,2.383-8.029,2.388
	c1.301-1.999,2.233-4.197,2.79-6.512C38.582,31.315,38.601,31.262,38.614,31.207z"/>
<g>
</g>
<g>
</g>
<g>
</g>
<g>
</g>
<g>
</g>
<g>
</g>
<g>
</g>
<g>
</g>
<g>
</g>
<g>
</g>
<g>
</g>
<g>
</g>
<g>
</g>
<g>
</g>
<g>
</g>
</svg>
